<svg id="Layer_1" data-name="Layer 1" xmlns="http://www.w3.org/2000/svg" viewBox="0 0 750 1334"><defs><style>.cls-1{fill:none;stroke:#3f6158;stroke-miterlimit:10;stroke-width:6px;}.cls-2{fill:#1b4338;}.cls-3{fill:#ede5d1;}.cls-4{fill:#2d5248;}</style></defs><path class="cls-1" d="M1023.5-1326.28S862.78-1265,765.19-1035.81C692-864,720.26-782.33,575.7-630.58,461.3-510.5,214.91-395.58,68.15-167.71S-197.42,132.74-228.33,133.54"/><path class="cls-1" d="M951.65-1406s-160.72,61.24-258.31,290.46c-73.16,171.84-44.93,253.49-189.5,405.24C389.45-590.26,143.06-475.34-3.7-247.47S-269.27,53-300.18,53.77"/><polygon class="cls-2" points="805 1353 -73 1350.62 -55.57 0 786.7 0 805 1353"/><path class="cls-3" d="M-614.34,1196.66l27.06,143.74,1968.49,14.09,1.38-140.36s-177-5-290.06,7.73-202,5.1-250,.3-232.41-3.44-330.1-18.17-221-8.49-275.42-1.79-293.24,10-373.21-10.57-195.53,4.69-271.79-1.77S-614.34,1196.66-614.34,1196.66Z"/><path class="cls-4" d="M621.66,755a8.07,8.07,0,0,1-1.54-14.52l285-173.5L499.7,426.07a8.08,8.08,0,1,1,5.3-15.26L926.58,557.29a8.08,8.08,0,0,1,1.54,14.53L628.51,754.22A8.08,8.08,0,0,1,621.66,755Z"/><path class="cls-4" d="M607.57,678.16a8.07,8.07,0,0,1-1.64-14.46L826.65,525.2a8.08,8.08,0,0,1,8.59,13.68L614.52,677.38A8.07,8.07,0,0,1,607.57,678.16Z"/><path class="cls-4" d="M581.48,612.73a8.08,8.08,0,0,1-1.77-14.38L738.12,494.57A8.08,8.08,0,0,1,747,508.08L588.56,611.85A8.07,8.07,0,0,1,581.48,612.73Z"/><path class="cls-4" d="M565.55,529.65a8.07,8.07,0,0,1-1-14.81l94.59-48.42a8.07,8.07,0,0,1,7.35,14.38l-94.58,48.41A8,8,0,0,1,565.55,529.65Z"/><polygon class="cls-4" points="522.66 490.35 583.3 454.43 500.94 425.82 522.66 490.35"/><path class="cls-4" d="M381.55,391.52A8.07,8.07,0,0,1,383.1,406l-285,173.5L503.51,720.4a8.07,8.07,0,1,1-5.3,15.25L76.64,589.17a8.07,8.07,0,0,1-1.55-14.52L374.7,392.25A8,8,0,0,1,381.55,391.52Z"/><path class="cls-4" d="M395.64,468.3a8.09,8.09,0,0,1,1.64,14.47L176.56,621.27A8.08,8.08,0,0,1,168,607.59l220.72-138.5A8.07,8.07,0,0,1,395.64,468.3Z"/><path class="cls-4" d="M421.73,533.74a8.07,8.07,0,0,1,1.77,14.38L265.09,651.9a8.07,8.07,0,0,1-8.84-13.51l158.4-103.78A8,8,0,0,1,421.73,533.74Z"/><path class="cls-4" d="M437.66,616.81a8.07,8.07,0,0,1,1,14.81L344.11,680a8.07,8.07,0,1,1-7.36-14.37l94.58-48.42A8.06,8.06,0,0,1,437.66,616.81Z"/><polygon class="cls-4" points="480.56 656.12 419.91 692.03 502.27 720.65 480.56 656.12"/></svg>