<svg id="Layer_1" data-name="Layer 1" xmlns="http://www.w3.org/2000/svg" viewBox="0 0 750 1334"><defs><style>.cls-1{fill:#ede5d1;}.cls-2{fill:#abd976;}</style></defs><path class="cls-1" d="M-614.34-157.34-587.28-13.6,1381.21.49l1.38-140.36s-177-5-290.06,7.73-202,5.1-250,.3S610.11-135.28,512.42-150s-221-8.49-275.42-1.79-293.24,10-373.21-10.57-195.53,4.69-271.79-1.77S-614.34-157.34-614.34-157.34Z"/><polygon class="cls-1" points="814.14 1345.07 -63.86 1342.69 -46.43 -7.93 795.84 -7.93 814.14 1345.07"/><path class="cls-2" d="M1325.53,1212.22s-37.66-4-112.23-4.45c-39.23-.26-65.36,6.65-122.62,10a357.76,357.76,0,0,1-86.07-5.57c-58-10.83-104.91,2.81-168.69,4.22-63.21,1.4-111.89-18.42-170.65-17.19-40.67-2.47-136.52,25.84-179,26.73-58.75,1.24-93.64-8.74-170.07-22.06-65.32-11.39-175.19,16.18-223.78,15.7-118.92-1.17-163.13-32.26-215.26-15.7l.65,141.1H1324Z"/></svg>