<svg id="Layer_1" data-name="Layer 1" xmlns="http://www.w3.org/2000/svg" viewBox="0 0 750 1334"><defs><style>.cls-1{fill:#1b4338;}.cls-2{fill:none;stroke:#3f6158;stroke-miterlimit:10;stroke-width:6px;}.cls-3{fill:#3f6158;}</style></defs><polygon class="cls-1" points="759.3 -14.6 760.61 1333.22 -8.09 1334.78 -10.82 -13.04 759.3 -14.6"/><path class="cls-2" d="M1023.5,27.72S862.78,89,765.19,318.19C692,490,720.26,571.67,575.7,723.42c-114.4,120.08-360.79,235-507.55,462.87s-265.57,300.45-296.48,301.25"/><path class="cls-2" d="M951.65-52S790.93,9.2,693.34,238.42c-73.16,171.84-44.93,253.49-189.5,405.24C389.45,763.74,143.06,878.66-3.7,1106.53S-269.27,1407-300.18,1407.77"/><path class="cls-3" d="M592,786.52s-3.3,16.48-1.77,25.15S621,823,634.31,814.61c0,0,3.19-16.24-7-28S606.45,776.22,592,786.52Z"/><path class="cls-3" d="M347.11,972.31s-23.22,13.29-1.77,25.15c13.66,7.54,30.79,11.31,44.1,2.94,0,0,13.69-29.88-.44-36.4C376,958,361.57,962,347.11,972.31Z"/><path class="cls-3" d="M548.87,461s17.3-11.82,1.44-30.51c-10.1-11.89-20.3-9.13-35.71-6l-17,21.83C488.85,457.65,531.7,465.54,548.87,461Z"/></svg>