<svg id="Layer_1" data-name="Layer 1" xmlns="http://www.w3.org/2000/svg" viewBox="0 0 750 1334"><defs><style>.cls-1{fill:#ede5d1;}.cls-2{fill:#3f6158;}.cls-3{fill:#2d5248;}.cls-4{fill:#1b4338;}.cls-5{fill:none;stroke:#3f6158;stroke-miterlimit:10;stroke-width:6px;}</style></defs><polygon class="cls-1" points="749.51 1321.84 -0.49 1318.85 0.44 -11.42 750.45 -10.89 749.51 1321.84"/><path class="cls-2" d="M748.5,371.42s-169.18,123-203,360.18c0,0-8.46,85-90.94,125.15S342.47,898,294.89,986.81s-104.68,111-104.68,111L-63.45,1293.65H172.34l576.16.29,496.17.38L1226.89,371Z"/><path class="cls-3" d="M1244.67,526.52s-196.08,238.9-280.45,307.35c-67.91-14.09-92,87.75-184.53,87.75-59.41,0-81.72,86.85-125,87S537.6,976.08,352.3,1112.8L166.75,1249.18v70.46l1068.14,19.12Z"/><path class="cls-4" d="M1230.72,1060.66s-45-8.28-134.09-9.31c-46.87-.55-78.08,13.91-146.49,20.92-34.74,3.57-69.76-.81-102.82-11.64-69.27-22.69-125.34,5.87-201.53,8.83-75.52,2.94-162-15.53-232.18-12.94-48.59-5.17-154.4,33.07-205.18,34.94-70.19,2.59-119.55-5.48-210.87-33.38-78-23.85-181.92,18.86-240,17.85-142.07-2.46-195.11-3.4-257.38,31.29l.91,231.54h1727.8Z"/><path class="cls-5" d="M293.21,1056.63s54,120.24,162.49,120.86,434.69-60.57,779.63,161.51"/><path class="cls-5" d="M325.58,1012.19s54,120.24,162.49,120.87,434.69-60.58,779.63,161.51"/><path class="cls-5" d="M951.65,1302s-160.72,61.24-258.31,290.46c-73.16,171.84-44.93,253.49-189.5,405.24-114.39,120.08-360.78,235-507.54,462.87S-269.27,2761-300.18,2761.77"/></svg>