<svg xmlns="http://www.w3.org/2000/svg" viewBox="0 0 1920 1080"><defs><style>.cls-1{fill:#ede5d1;}.cls-2{fill:#3f6158;}.cls-3{fill:#2d5248;}.cls-4{fill:#1b4338;}.cls-5{fill:none;stroke:#3f6158;stroke-miterlimit:10;stroke-width:8px;}</style></defs><g id="Layer_1" data-name="Layer 1"><polygon class="cls-1" points="1902 1066 -2 1064.03 -2 -2 1902 -2 1902 1066"/><path class="cls-2" d="M1454.67-7.53S1264.3,130.83,1226.22,397.78c0,0-9.51,95.61-102.32,140.83S997.78,585,944.23,685,826.44,809.89,826.44,809.89L541,1030.24H806.33l648.34.33L1922,1031,1933-8Z"/><path class="cls-3" d="M1922,257s-144.64,193.84-239.58,270.86C1606,512,1579,626.6,1474.77,626.6c-66.85,0-92,97.73-140.62,97.9s-131.79-36.62-340.31,117.24L785,995.2v79.29L1920,1081Z"/><path class="cls-4" d="M1933.31,768.07s-50.63-9.32-150.89-10.49c-52.74-.61-87.87,15.66-164.84,23.55-39.09,4-78.5-.92-115.7-13.1-78-25.54-141.05,6.6-226.79,9.94-85,3.3-182.28-17.48-261.26-14.56-54.68-5.83-173.75,37.2-230.88,39.31-79,2.91-134.54-6.16-237.29-37.56-87.82-26.84-204.72,21.22-270,20.09C115.75,782.48,56.07,781.42-14,820.46L-13,1081H1931.28Z"/></g><g id="Layer_2" data-name="Layer 2"><path class="cls-5" d="M910.36,770.54S969,906.8,1091,909.47s490.19-60.29,874.28,195.82"/><path class="cls-5" d="M1018,678.88s58.62,136.26,180.63,138.93,490.19-60.3,874.28,195.82"/></g></svg>