<svg id="Layer_1" data-name="Layer 1" xmlns="http://www.w3.org/2000/svg" viewBox="0 0 1920 1080"><defs><style>.cls-1{fill:#ede5d1;}.cls-2{fill:#abd976;}</style></defs><polygon class="cls-1" points="1927 1087 -6 1084.98 -6 -6 1927 -6 1927 1087"/><path class="cls-2" d="M3362,928.61s-88.35-9.31-263.31-10.48c-92-.61-153.34,15.66-287.67,23.55a836.15,836.15,0,0,1-201.91-13.11c-136-25.53-246.14,6.61-395.77,9.94C2065,941.82,1950.84,895.09,1813,898c-95.43-5.82-320.29,60.89-420,63-137.84,2.91-219.68-20.6-399-52-153.25-26.84-411,38.13-525,37-279-2.77-382.72-76-505-37l1.51,332.55h3393Z"/></svg>