<svg xmlns="http://www.w3.org/2000/svg" viewBox="0 0 1920 1080"><defs><style>.cls-1{fill:#1b4338;}.cls-2{fill:none;stroke:#3f6158;stroke-miterlimit:10;stroke-width:8px;}.cls-3{fill:#3f6158;}</style></defs><g id="Layer_1" data-name="Layer 1"><polygon class="cls-1" points="1926 1093 -7 1090.98 -7 0 1926 0 1926 1093"/><path class="cls-2" d="M2115,156s-210-23-445,173c-176.17,146.93-191,252-434,337-192.29,67.26-526,55-814,222S-36.53,1067.86-70.77,1051.43"/><path class="cls-2" d="M2043.17,29.86s-210-23-445,173c-176.17,146.94-191,252-434,337-192.29,67.26-526,55-814,222S-108.36,941.72-142.6,925.29"/></g><g id="Layer_2" data-name="Layer 2"><path class="cls-3" d="M1421.72,657.28s-3.87,17.47-2.08,26.65,36.17,12,51.81,3.12c0,0,3.74-17.21-8.23-29.69S1438.71,646.36,1421.72,657.28Z"/><path class="cls-3" d="M1134,854.19s-27.28,14.09-2.08,26.65c16,8,36.17,12,51.81,3.12,0,0,16.09-31.66-.51-38.58C1168,839,1151,843.27,1134,854.19Z"/><path class="cls-3" d="M1371.06,312.32s20.32-12.53,1.69-32.33c-11.86-12.61-23.85-9.68-42-6.39l-19.93,23.14C1300.55,308.73,1350.89,317.09,1371.06,312.32Z"/></g></svg>