<svg id="Layer_1" data-name="Layer 1" xmlns="http://www.w3.org/2000/svg" viewBox="0 0 1280 1024"><defs><style>.cls-1{fill:#ede5d1;}.cls-2{fill:#3f6158;}.cls-3{fill:#2d5248;}.cls-4{fill:#0d4433;}</style></defs><rect class="cls-1" x="-220" width="1500" height="1024"/><path class="cls-2" d="M1029.9-.2s-160,116.28-192,340.64c0,0-8,80.36-86,118.36s-106,39-151,123-99,105-99,105L262,872H485l544.9.27h250.5V-.2Z"/><path class="cls-3" d="M1280.3,264s-70.8,121-150.6,185.73c-44.7,0-87,83-174.52,83C899,532.75,877.9,614.89,837,615s-110.77-30.78-286,98.53l-175.48,129v66.64L1280.3,912Z"/><path class="cls-4" d="M1280,807.2s-176.8,22.15-301.56-11.51-307.27-22.62-394,0c-109.16,28.48-252,42.55-373.48,9.51-233.55-63.53-354,0-430.18,37.77l-.81,181H1280Z"/></svg>