<svg id="Layer_1" data-name="Layer 1" xmlns="http://www.w3.org/2000/svg" viewBox="0 0 537 245"><defs><style>.cls-1{fill:#004632;}.cls-2{isolation:isolate;}</style></defs><path class="cls-1" d="M181.55,99.7l-6.07-9.33-1.7-2.51-3.73-5.73s0,0,0-.09l0,0a2.67,2.67,0,0,0-.31-.36l0-.08a2.55,2.55,0,0,0-1.63-1.1h-.09l-.34,0a2.55,2.55,0,0,0-1.46.37L137.54,97.93a2.6,2.6,0,0,1-1.23.38,2.47,2.47,0,0,1-1.24-.3L102.13,80.65a2.59,2.59,0,0,0-3.47,1.09l-3.39,6.2,0,0,0,0,0,0-1.18,2.08.09,0h0l-5,9.37a3.11,3.11,0,0,0,.34,3.39l44.62,53a1.61,1.61,0,0,0,.39.39h0a3,3,0,0,0,4.16-.44l42.62-52.68A3.09,3.09,0,0,0,181.55,99.7Zm-12,2.61-30.77,37.28-.35.34,0,0a2.9,2.9,0,0,1-4.09-.29l-32.37-37a2.92,2.92,0,0,1-.35-3.51l2.21-3.78.32-.53h0l.18-.35.83-1.38L135,109a2.47,2.47,0,0,0,1.29.32,2.52,2.52,0,0,0,1.27-.36l28-16.41,1.17,1.65h0l.45.71,2.47,3.9A3,3,0,0,1,169.53,102.31Z"/><g id="waiwai"><g class="cls-2"><path class="cls-1" d="M218.27,141l-12.81-38.81a39.2,39.2,0,0,1-1.12-3.81,13.51,13.51,0,0,1-.39-2.88l-2.42.11c-.69,0-1.35.06-2,.1V90.15h21.24V94.9a5.68,5.68,0,0,0-3.92,1q-1.26,1.08-.32,4.39l2.16,8.21,2.16,8.21c.43,1.63.82,3.17,1.18,4.61s.76,3.31,1.19,5.61h.07c.2-.67.48-1.7.87-3.09s.8-2.9,1.26-4.5.86-3.08,1.22-4.4.61-2.24.76-2.77c.77-2.45,1.52-4.89,2.27-7.34s1.48-4.9,2.23-7.35,1.47-4.89,2.19-7.34h6.48c.68,2.21,1.36,4.42,2.06,6.62s1.38,4.42,2,6.63,1.35,4.41,2.05,6.62,1.38,4.42,2.05,6.63q.8,2.44,1.41,5.07c.4,1.75.8,3.52,1.18,5.29h.08c.43-1.53.87-3.13,1.33-4.78l1.4-5.15c.34-1.25.67-2.5,1-3.75s.67-2.5,1-3.78.67-2.53,1-3.78.67-2.49,1-3.74a29.41,29.41,0,0,1,1.16-3.56,9.22,9.22,0,0,1,1.8-3c-.77,0-1.76.08-3,.11s-2.06.06-2.59.1V90.15h16.2V94.9a7,7,0,0,0-3,.83,7.59,7.59,0,0,0-2.55,2.41,17.49,17.49,0,0,0-2.09,4.47q-2.88,9.57-5.83,19.15T252.47,141h-6.4l-8.5-25.77c-.62-1.88-1.14-3.71-1.55-5.51s-.8-3.52-1.19-5.15c-.24,1.63-.52,3.2-.86,4.72s-.74,3.08-1.22,4.71l-8.21,27Z"/><path class="cls-1" d="M289.7,140.55a17,17,0,0,1-.18-1.69c0-.46-.06-1-.11-1.62a14.42,14.42,0,0,1-5.18,3.45,16,16,0,0,1-5.55,1,9.46,9.46,0,0,1-7.2-2.73,9.57,9.57,0,0,1-2.59-6.84,9.87,9.87,0,0,1,1.76-5.91,13.45,13.45,0,0,1,4.68-4,26.36,26.36,0,0,1,6.48-2.38,38.14,38.14,0,0,1,7.17-1v-3.75a11.5,11.5,0,0,0-.47-3.38,4.67,4.67,0,0,0-1.58-2.38,4.77,4.77,0,0,0-3.14-.79,8.46,8.46,0,0,0-2.66.58,6.22,6.22,0,0,0-2.23,1.44,3,3,0,0,1,.72,1.4,7.82,7.82,0,0,1,.14,1.33,5,5,0,0,1-1.15,3,4.12,4.12,0,0,1-3.67,1.48,4.17,4.17,0,0,1-3.31-1.51,5.26,5.26,0,0,1-1.16-3.39,7,7,0,0,1,2.06-5,13.56,13.56,0,0,1,5.5-3.31,23.19,23.19,0,0,1,7.64-1.19q6.33,0,9.82,3.27t3.5,10.48v4.18c0,1.15,0,2.3,0,3.45s0,2.55,0,4.18c0,.67,0,1.62-.07,2.84s-.12,2.39-.21,3.49c.81-.09,1.68-.15,2.59-.18l2.09,0v5.47ZM288.91,124a22.49,22.49,0,0,0-3.82.72,11.35,11.35,0,0,0-3.13,1.37,6.52,6.52,0,0,0-2.09,2.09,5.1,5.1,0,0,0-.76,2.73,3.42,3.42,0,0,0,1.3,2.88,4.73,4.73,0,0,0,2.81.87,6.81,6.81,0,0,0,3.09-.72,10,10,0,0,0,2.6-1.88V124Z"/><path class="cls-1" d="M307.41,135.87a4.22,4.22,0,0,0,2.88-.79,3.86,3.86,0,0,0,1.12-2.27,20.9,20.9,0,0,0,.25-3.35v-12c0-.86,0-1.86.07-3s.12-2.22.22-3.27c-.77,0-1.67.08-2.7.1s-1.82.06-2.34.11V106a37.16,37.16,0,0,0,5.61-.36,19.42,19.42,0,0,0,3.64-.86,6.63,6.63,0,0,0,1.83-.94h3.89V129c0,.67,0,1.62-.07,2.84s-.12,2.39-.22,3.49c.77-.09,1.62-.15,2.56-.18l2.12,0v5.47H307.41Zm9-37.73a5.19,5.19,0,0,1-4-1.73,5.93,5.93,0,0,1-1.59-4.17,5.8,5.8,0,0,1,1.66-4.18,5.22,5.22,0,0,1,3.89-1.73,5,5,0,0,1,3.85,1.73,6.06,6.06,0,0,1,1.55,4.18,6.29,6.29,0,0,1-1.44,4.17A4.78,4.78,0,0,1,316.41,98.14Z"/><path class="cls-1" d="M341.39,140.77l-8.71-25-1-2.81a14.75,14.75,0,0,1-.47-1.58c-.09-.43-.21-.94-.36-1.51l-2.81.14v-5.47h17.28v4.61c-1.48,0-2.35.62-2.59,1.73a8.35,8.35,0,0,0,.22,3.88l2.45,8.79c.28,1,.56,2.17.82,3.35s.5,2.34.69,3.49c.24-1,.49-2.11.75-3.31s.66-2.69,1.19-4.47l5.26-18.07H362l5.76,19.87c.28,1,.58,2.1.9,3.28s.58,2.24.82,3.2c.2-1,.46-2,.8-3.17s.64-2.18.93-3.09l2.81-9.15c.38-1.29.72-2.36,1-3.2a21.94,21.94,0,0,1,1.08-2.56L372,110v-5.47h13.68v4.61a3.74,3.74,0,0,0-2.52.93,9.88,9.88,0,0,0-1.9,2.27,16.45,16.45,0,0,0-1.34,2.59q-.5,1.26-.72,2L371,140.77h-7.64l-5-15.34c-.15-.53-.38-1.3-.69-2.3s-.62-2.1-.93-3.28-.62-2.27-.9-3.28c-.25,1.35-.6,2.88-1.08,4.61s-.94,3.31-1.37,4.75-.75,2.43-.94,3l-4,11.88Z"/><path class="cls-1" d="M408.57,140.55a17,17,0,0,1-.18-1.69c0-.46-.06-1-.11-1.62a14.42,14.42,0,0,1-5.18,3.45,16,16,0,0,1-5.55,1,9.46,9.46,0,0,1-7.2-2.73,9.61,9.61,0,0,1-2.59-6.84,9.81,9.81,0,0,1,1.77-5.91,13.27,13.27,0,0,1,4.68-4,26.07,26.07,0,0,1,6.48-2.38,37.93,37.93,0,0,1,7.16-1v-3.75a11.5,11.5,0,0,0-.47-3.38,4.67,4.67,0,0,0-1.58-2.38,4.76,4.76,0,0,0-3.13-.79,8.52,8.52,0,0,0-2.67.58,6.22,6.22,0,0,0-2.23,1.44,3,3,0,0,1,.72,1.4,7.82,7.82,0,0,1,.14,1.33,5,5,0,0,1-1.15,3,4.12,4.12,0,0,1-3.67,1.48,4.17,4.17,0,0,1-3.31-1.51,5.25,5.25,0,0,1-1.15-3.39,6.94,6.94,0,0,1,2-5,13.6,13.6,0,0,1,5.51-3.31,23.09,23.09,0,0,1,7.63-1.19q6.33,0,9.83,3.27t3.49,10.48v4.18c0,1.15,0,2.3,0,3.45s0,2.55,0,4.18c0,.67,0,1.62-.08,2.84s-.12,2.39-.21,3.49c.81-.09,1.68-.15,2.59-.18l2.09,0v5.47ZM407.78,124a22.49,22.49,0,0,0-3.82.72,11.35,11.35,0,0,0-3.13,1.37,6.62,6.62,0,0,0-2.09,2.09,5.09,5.09,0,0,0-.75,2.73,3.39,3.39,0,0,0,1.29,2.88,4.73,4.73,0,0,0,2.81.87,6.89,6.89,0,0,0,3.1-.72,9.92,9.92,0,0,0,2.59-1.88V124Z"/><path class="cls-1" d="M426.28,135.87a4.22,4.22,0,0,0,2.88-.79,3.86,3.86,0,0,0,1.12-2.27,20.9,20.9,0,0,0,.25-3.35v-12c0-.86,0-1.86.07-3s.12-2.22.22-3.27c-.77,0-1.67.08-2.7.1s-1.82.06-2.34.11V106a37.07,37.07,0,0,0,5.61-.36,19.42,19.42,0,0,0,3.64-.86,6.48,6.48,0,0,0,1.83-.94h3.89V129c0,.67,0,1.62-.07,2.84s-.12,2.39-.22,3.49c.77-.09,1.62-.15,2.56-.18l2.12,0v5.47H426.28Zm9-37.73a5.19,5.19,0,0,1-4-1.73,5.93,5.93,0,0,1-1.59-4.17,5.85,5.85,0,0,1,1.66-4.18,5.22,5.22,0,0,1,3.89-1.73,5,5,0,0,1,3.85,1.73,6.06,6.06,0,0,1,1.55,4.18,6.29,6.29,0,0,1-1.44,4.17A4.78,4.78,0,0,1,435.28,98.14Z"/></g></g></svg>